<svg width="62" height="28" viewBox="0 0 62 28" fill="none" xmlns="http://www.w3.org/2000/svg">
<path fill-rule="evenodd" clip-rule="evenodd" d="M27.8552 2.90577C27.5866 2.78522 27.2745 2.78522 27.0059 2.90577L20.7026 5.73468C20.3595 5.88865 20.1708 6.21318 20.1708 6.57072V7.35767L17.1949 7.34374V6.57072C17.1949 5.14056 18.0564 3.83889 19.4286 3.22303L25.7319 0.394114C26.8063 -0.0880897 28.0548 -0.0880892 29.1292 0.394114L35.4325 3.22303C36.8047 3.83889 37.6785 5.14174 37.6785 6.5719V7.35767L34.6995 7.34374V6.5719C34.6995 6.21436 34.5015 5.88865 34.1585 5.73468L27.8552 2.90577Z" fill="#009CCD"/>
<path d="M7.4382 14.8259L12.2187 4.07926H15.2216L5.66062 24.1601H2.62322L5.8332 17.407L0 4.07926H3.05467L7.4382 14.8259Z" fill="#071C3B"/>
<path d="M20.1453 10.7999C20.1453 12.196 20.4617 13.3107 21.0945 14.1441C21.7388 14.9666 22.7225 15.0879 24.0456 15.0879C24.8597 15.0879 28.1757 15.0879 30.559 15.0879C32.1911 15.0879 33.1028 14.9774 33.7356 14.1441C34.3684 13.3107 34.6848 12.4596 34.6848 10.7999V9.18123H37.6532V11.1895C37.6532 12.4882 37.3828 13.6354 36.842 14.6311C36.3128 15.6267 35.5362 16.4059 34.5122 16.9687C34.0941 17.1966 33.0367 17.7966 30.559 17.7966C28.8332 17.7966 24.9101 17.7966 24.0456 17.7966C22.1889 17.7966 21.3419 17.5206 20.3179 16.9687C19.3055 16.4059 18.5288 15.6267 17.9881 14.6311C17.4588 13.6354 17.1942 12.4882 17.1942 11.1895V9.18123H20.1453V10.7999Z" fill="#071C3B"/>
<path d="M43.0411 17.407H40.0555V4.07926H43.0411V6.38442H42.9548C43.0123 6.10304 43.2252 5.75131 43.5934 5.32924C43.9615 4.90717 44.4678 4.52839 45.1121 4.19289C45.7564 3.8574 46.5272 3.68965 47.4246 3.68965C48.0804 3.68965 48.6557 3.77623 49.1504 3.94939C49.6567 4.11172 50.0133 4.27406 50.2204 4.4364L48.9951 6.77403C48.834 6.62251 48.5522 6.471 48.1495 6.31949C47.7468 6.15715 47.2463 6.07598 46.648 6.07598C45.8887 6.07598 45.2386 6.29784 44.6979 6.74156C44.1571 7.18527 43.7429 7.72098 43.4553 8.34868C43.1792 8.96555 43.0411 9.53914 43.0411 10.0694V17.407Z" fill="#071C3B"/>
<path d="M51.9731 4.07926H54.7516V0H57.7373V4.07926H61.3787V6.49805H57.7373V13.0889C57.7373 13.8681 57.8811 14.4417 58.1687 14.8096C58.4679 15.1776 58.8648 15.3616 59.3595 15.3616C59.7967 15.3616 60.1361 15.2858 60.3777 15.1343C60.6194 14.9828 60.7632 14.88 60.8092 14.8259L62 16.9038C61.931 16.9579 61.7469 17.0607 61.4477 17.2122C61.1486 17.3637 60.7632 17.499 60.2915 17.618C59.8197 17.7371 59.2675 17.7966 58.6347 17.7966C57.5302 17.7966 56.604 17.4827 55.8561 16.8551C55.1198 16.2165 54.7516 15.2101 54.7516 13.8356V6.49805H51.9731V4.07926Z" fill="#071C3B"/>
<path d="M40.1298 23.2364H41.0162V21.3366H42.2365V23.2364H43.4049V24.2512H42.2365V26.2299C42.2365 26.4779 42.2787 26.6639 42.3631 26.788C42.4514 26.912 42.5761 26.974 42.7372 26.974C42.8715 26.974 42.9771 26.9496 43.0538 26.9007C43.1344 26.8519 43.1824 26.818 43.1977 26.7992L43.6524 27.673C43.6294 27.6956 43.5623 27.7332 43.451 27.7858C43.3397 27.8384 43.1958 27.8873 43.0193 27.9324C42.8428 27.9775 42.6413 28 42.4149 28C42.0158 28 41.682 27.8835 41.4134 27.6505C41.1486 27.4175 41.0162 27.0529 41.0162 26.5568V24.2512H40.1298V23.2364Z" fill="#071C3B"/>
<path d="M45.9602 25.8353C45.9678 26.0795 46.0273 26.2994 46.1386 26.4948C46.2499 26.6903 46.413 26.8443 46.6279 26.9571C46.8466 27.0661 47.1133 27.1206 47.4279 27.1206C47.7004 27.1206 47.9345 27.0849 48.1302 27.0135C48.3297 26.9383 48.4947 26.85 48.6252 26.7485C48.7556 26.6433 48.8516 26.5456 48.913 26.4554L49.4598 27.1826C49.3408 27.3404 49.1912 27.4814 49.0108 27.6054C48.8305 27.7294 48.606 27.8252 48.3374 27.8929C48.0726 27.9643 47.7445 28 47.3531 28C46.8389 28 46.3919 27.8966 46.012 27.6899C45.6321 27.4832 45.3366 27.192 45.1255 26.8162C44.9183 26.4403 44.8147 26.0006 44.8147 25.497C44.8147 25.046 44.9107 24.6401 45.1025 24.2793C45.2944 23.9148 45.5726 23.6273 45.9371 23.4168C46.3055 23.2064 46.7468 23.1011 47.261 23.1011C47.7407 23.1011 48.157 23.1951 48.5101 23.383C48.8631 23.5709 49.1355 23.8415 49.3274 24.1948C49.5231 24.5443 49.621 24.9671 49.621 25.4632C49.621 25.4932 49.619 25.5553 49.6152 25.6492C49.6152 25.7432 49.6114 25.8052 49.6037 25.8353H45.9602ZM48.4698 24.9558C48.4659 24.8356 48.4237 24.6984 48.3431 24.5443C48.2664 24.3902 48.1417 24.2568 47.969 24.144C47.7963 24.0275 47.5661 23.9693 47.2783 23.9693C46.9828 23.9693 46.743 24.0257 46.5588 24.1384C46.3746 24.2474 46.2384 24.3789 46.1501 24.533C46.0619 24.6833 46.01 24.8243 45.9947 24.9558H48.4698Z" fill="#071C3B"/>
<path d="M53.6566 27.0247C53.9291 27.0247 54.1497 26.9815 54.3186 26.8951C54.4913 26.8049 54.6025 26.7391 54.6524 26.6978L55.2338 27.5434C55.1877 27.581 55.0918 27.6373 54.946 27.7125C54.8002 27.7839 54.614 27.8497 54.3876 27.9098C54.1651 27.9699 53.9118 28 53.6279 28C53.1597 28 52.7338 27.9042 52.35 27.7125C51.9701 27.5171 51.6651 27.2371 51.4348 26.8725C51.2084 26.5042 51.0952 26.0626 51.0952 25.5477C51.0952 25.0291 51.2084 24.5875 51.4348 24.223C51.6651 23.8584 51.9701 23.5803 52.35 23.3886C52.7338 23.197 53.1597 23.1011 53.6279 23.1011C53.908 23.1011 54.1574 23.1331 54.3761 23.197C54.5987 23.2571 54.7829 23.3266 54.9287 23.4055C55.0745 23.4845 55.1724 23.5465 55.2223 23.5916L54.6294 24.4372C54.6025 24.4109 54.5469 24.3695 54.4625 24.3132C54.3819 24.253 54.2744 24.1985 54.1401 24.1497C54.0058 24.1008 53.8447 24.0764 53.6566 24.0764C53.4264 24.0764 53.2057 24.1365 52.9947 24.2568C52.7836 24.3771 52.611 24.5481 52.4767 24.7698C52.3424 24.9878 52.2752 25.2471 52.2752 25.5477C52.2752 25.8484 52.3424 26.1096 52.4767 26.3313C52.611 26.5531 52.7836 26.7241 52.9947 26.8443C53.2057 26.9646 53.4264 27.0247 53.6566 27.0247Z" fill="#071C3B"/>
<path d="M59.6614 23.1011C59.9761 23.1011 60.283 23.165 60.5823 23.2928C60.8817 23.4206 61.1272 23.6254 61.3191 23.9073C61.5148 24.1854 61.6127 24.5481 61.6127 24.9953V27.8647H60.3751V25.2151C60.3751 24.798 60.2773 24.4917 60.0816 24.2962C59.8897 24.0971 59.6345 23.9975 59.316 23.9975C59.105 23.9975 58.9016 24.0557 58.7059 24.1722C58.5102 24.2887 58.349 24.4466 58.2224 24.6458C58.0996 24.845 58.0382 25.0742 58.0382 25.3335V27.8647H56.8007V20.1077H58.0382V24.0144C58.0727 23.8866 58.1648 23.7532 58.3145 23.6141C58.468 23.4713 58.6618 23.351 58.8958 23.2533C59.1299 23.1519 59.3851 23.1011 59.6614 23.1011Z" fill="#071C3B"/>
</svg>
