<svg xmlns="http://www.w3.org/2000/svg" width="20" height="18" viewBox="0 0 20 18" fill="none">
  <path fill-rule="evenodd" clip-rule="evenodd" d="M10.4089 2.91146C10.1467 2.7893 9.84193 2.7893 9.57968 2.91146L3.42541 5.77793C3.09047 5.93394 2.90622 6.26278 2.90622 6.62507V7.42247L0.000674997 7.40836V6.62507C0.000674997 5.17592 0.841751 3.85697 2.18154 3.23293L8.3358 0.366454C9.38483 -0.122152 10.6038 -0.122151 11.6528 0.366454L17.8071 3.23293C19.1469 3.85697 20 5.17712 20 6.62627V7.42247L17.0914 7.40836V6.62627C17.0914 6.26398 16.8981 5.93394 16.5632 5.77794L10.4089 2.91146Z" fill="#009CCD"/>
  <path d="M2.88135 10.9104C2.88135 12.3251 3.19027 13.4546 3.8081 14.299C4.43717 15.1324 5.39762 15.2553 6.68945 15.2553C7.48425 15.2553 10.7219 15.2553 13.0488 15.2553C14.6423 15.2553 15.5325 15.1433 16.1503 14.299C16.7682 13.4546 17.0771 12.5921 17.0771 10.9104V9.27024H19.9753V11.3052C19.9753 12.6212 19.7113 13.7836 19.1833 14.7924C18.6666 15.8013 17.9083 16.5909 16.9086 17.1611C16.5003 17.3921 15.468 18 13.0488 18C11.3638 18 7.53348 18 6.68945 18C4.87656 18 4.04962 17.7204 3.04985 17.1611C2.06132 16.5909 1.30307 15.8013 0.775101 14.7924C0.258367 13.7836 0 12.6212 0 11.3052V9.27024H2.88135V10.9104Z" fill="#071C3B"/>
</svg>
